<svg xmlns="http://www.w3.org/2000/svg" viewBox="0 0 256 256" role="img" aria-label="C1 – Turizmus‑/üdülő‑öv (flat)">
  <title>C1 – Turizmus‑/üdülő‑öv (flat)</title>
  <desc>Hegy + tó + csillagos turisztikai pin – 2D áttekintő.</desc>
  
  <defs>
    <linearGradient id="c1bg" x1="0" y1="0" x2="0" y2="1">
      <stop offset="0%" stop-color="#d8f6ff"/>
      <stop offset="100%" stop-color="#f0fbff"/>
    </linearGradient>
    <radialGradient id="sun" cx="56" cy="58" r="34" gradientUnits="userSpaceOnUse">
      <stop offset="0" stop-color="#ffe17a"/>
      <stop offset="65%" stop-color="#ffbe55"/>
      <stop offset="100%" stop-color="#ffa046"/>
    </radialGradient>
    <filter id="ds">
      <feGaussianBlur in="SourceAlpha" stdDeviation="1.4"/>
      <feOffset dx="0" dy="1.4"/>
      <feComponentTransfer><feFuncA type="linear" slope="0.25"/></feComponentTransfer>
      <feMerge><feMergeNode/><feMergeNode in="SourceGraphic"/></feMerge>
    </filter>
  </defs>
  <rect x="8" y="8" width="240" height="240" rx="28" fill="url(#c1bg)"/>
  <circle cx="50" cy="54" r="28" fill="url(#sun)" filter="url(#ds)"/>
  <g filter="url(#ds)">
    <polygon points="36,168 96,84 156,168" fill="#8ac0a5" stroke="#75a893" stroke-width="2"/>
    <polygon points="92,168 148,106 212,168" fill="#78b39b" stroke="#629d86" stroke-width="2"/>
  </g>
  <rect x="24" y="172" width="208" height="48" rx="12" fill="#8ddfff"/>
  <g stroke="#e8fbff" stroke-width="3" fill="none" stroke-linecap="round" opacity="0.9">
    <path d="M28 186 C 48 196, 68 176, 88 186 S 128 196, 148 186 S 188 176, 208 186 S 238 196, 232 186"/>
    <path d="M28 200 C 48 210, 68 190, 88 200 S 128 210, 148 200 S 188 190, 208 200 S 238 210, 232 200"/>
  </g>
  <g transform="translate(176,92)" filter="url(#ds)">
    <path d="M0 0 a22 22 0 1 1 44 0 c0 18 -22 44 -22 44 S0 18 0 0z" fill="#ff6f6f" stroke="#cc5959"/>
    <polygon points="22,10 26,18 35,19 28,25 30,34 22,30 14,34 16,25 9,19 18,18" fill="#fff7e0"/>
  </g>

</svg>
